<svg xmlns="http://www.w3.org/2000/svg" width="17.977" height="17.975" viewBox="0 0 17.977 17.975">
  <g id="close" transform="translate(0 -0.36)">
    <path id="Path_292" data-name="Path 292" d="M17.516,14.909,3.428.821A1.572,1.572,0,0,0,1.2.821l-.742.741a1.572,1.572,0,0,0,0,2.224L14.549,17.875a1.572,1.572,0,0,0,2.224,0l.741-.741a1.571,1.571,0,0,0,0-2.224Zm0,0" transform="translate(0)" fill="#f10"/>
    <path id="Path_293" data-name="Path 293" d="M14.549.823.461,14.911a1.572,1.572,0,0,0,0,2.224l.741.741a1.572,1.572,0,0,0,2.224,0L17.516,3.789a1.572,1.572,0,0,0,0-2.224L16.774.824a1.572,1.572,0,0,0-2.225,0Zm0,0" transform="translate(0 -0.002)" fill="#f44336"/>
  </g>
</svg>
