<svg xmlns="http://www.w3.org/2000/svg" width="31.433" height="30.123" viewBox="0 0 31.433 30.123">
    <path fill="#4caf50" d="M15.717.5C7.053.5 0 6.26 0 13.339 0 19.68 5.593 24.992 13.143 26c.512.109 1.209.341 1.386.778a3.24 3.24 0 0 1 .05 1.424l-.215 1.344c-.059.4-.314 1.563 1.374.85S24.8 25.022 28.1 21.2a11.4 11.4 0 0 0 3.337-7.865C31.433 6.26 24.381.5 15.717.5zM9.565 17.549H6.44a.833.833 0 0 1-.825-.829v-6.288a.825.825 0 1 1 1.65 0v5.458h2.3a.83.83 0 0 1 0 1.659zm3.23-.829a.824.824 0 1 1-1.648 0v-6.288a.824.824 0 1 1 1.648 0zm7.519 0a.83.83 0 0 1-.566.786.846.846 0 0 1-.261.041.809.809 0 0 1-.668-.33l-3.2-4.372v3.874a.823.823 0 1 1-1.646 0v-6.287a.826.826 0 0 1 .563-.785.762.762 0 0 1 .254-.043.846.846 0 0 1 .648.335l3.225 4.389v-3.9a.825.825 0 1 1 1.65 0zm5.049-3.975a.831.831 0 0 1 0 1.662h-2.3v1.483h2.3a.83.83 0 0 1 0 1.659h-3.125a.829.829 0 0 1-.821-.829v-6.288a.83.83 0 0 1 .825-.83h3.125a.83.83 0 0 1 0 1.661h-2.3v1.483z" transform="translate(0 -.5)"/>
</svg>
