<svg xmlns="http://www.w3.org/2000/svg" width="33.434" height="31.48" viewBox="0 0 33.434 31.48">
    <g>
        <path fill="#009ae4" d="M132.568 300.863l-6.543 6.523a1.013 1.013 0 0 1-.98.255 1.1 1.1 0 0 1-.666-.764v-.02l-1.879-11.244 1.528-1.156 3.742 2.194 4.8 2.821a1.006 1.006 0 0 1-.002 1.391z" transform="translate(0 -14.956) translate(-114.5 -261.25)"/>
        <path fill="#25d9f8" d="M33.415 16.132l-5.943 29.515a.96.96 0 0 1-.607.705.768.768 0 0 1-.353.078 1.021 1.021 0 0 1-.568-.176l-13.713-9.795C3.491 32.13 8.05 34.405.549 30.661a.984.984 0 0 1 .039-1.783l31.475-13.843a.97.97 0 0 1 1 .137l.137.137a.972.972 0 0 1 .215.823z" transform="translate(0 -14.956)"/>
        <path fill="#00c0f1" d="M147.7 20.364l-19.93 20.092-1.038 1.058-1.685 9.932a1.1 1.1 0 0 1-.666-.764v-.02L122.5 39.418l1.528-1.156z" transform="translate(0 -14.956) translate(-114.501 -5.055)"/>
    </g>
</svg>
