<svg xmlns="http://www.w3.org/2000/svg" width="35" height="35" viewBox="0 0 35 35">
    <path fill="#ededed" d="M0 35l2.414-8.75A17.407 17.407 0 0 1 17.44 0 17.579 17.579 0 0 1 35 17.379 17.787 17.787 0 0 1 17.44 35a17.567 17.567 0 0 1-8.509-2.414z"/>
    <path fill="#55cd6c" d="M50.54 70.591l.544.3a14.34 14.34 0 0 0 7.549 2.235 14.642 14.642 0 0 0 14.5-14.616 14.5 14.5 0 0 0-28.99 0 14.631 14.631 0 0 0 2.23 7.79l.362.544-1.389 5.076z" transform="translate(-41.133 -41.133)"/>
    <path fill="#fefefe" d="M133.62 135.122l-1.142-.06a1.365 1.365 0 0 0-.962.361 4.979 4.979 0 0 0-1.683 2.584c-.421 1.8.24 3.967 1.8 6.13a18.213 18.213 0 0 0 9.856 7.152 4.882 4.882 0 0 0 4.087-.481 3.546 3.546 0 0 0 1.563-2.284l.18-.841a.6.6 0 0 0-.3-.661l-3.786-1.743a.573.573 0 0 0-.721.18l-1.5 1.923a.468.468 0 0 1-.481.12 11.68 11.68 0 0 1-6.311-5.409.454.454 0 0 1 .06-.481l1.442-1.623a.74.74 0 0 0 .12-.6l-1.743-3.906a.524.524 0 0 0-.481-.361" transform="translate(-120.806 -125.796)"/>
</svg>
